<svg xmlns="http://www.w3.org/2000/svg" viewBox="0 0 64 64">
  <defs>
    <linearGradient id="fav-grad" x1="0%" y1="0%" x2="100%" y2="100%">
      <stop offset="0%" stop-color="#ffd54f"/>
      <stop offset="100%" stop-color="#b8860b"/>
    </linearGradient>
  </defs>
  <!-- Background Badge -->
  <rect width="64" height="64" rx="16" fill="#0a0a10"/>
  <rect x="1.5" y="1.5" width="61" height="61" rx="14.5" fill="none" stroke="url(#fav-grad)" stroke-width="2.5" stroke-opacity="0.8"/>
  
  <!-- Monitor Frame -->
  <rect x="11" y="11" width="42" height="30" rx="4" fill="#12121e" stroke="#ffffff" stroke-width="2.5"/>
  
  <!-- Monitor Stand & Base -->
  <path d="M32 41v7M22 48h20" stroke="#ffffff" stroke-width="2.5" stroke-linecap="round" stroke-linejoin="round"/>

  <!-- Precision Tech Gear inside screen -->
  <g transform="translate(32, 26)">
    <path d="M-2.5 -9h5l.8 2.5a7.5 7.5 0 0 1 2.3 1l2.3-1.3 3.5 3.5-1.3 2.3a7.5 7.5 0 0 1 1 2.3l2.5.8v5l-2.5.8a7.5 7.5 0 0 1-1 2.3l1.3 2.3-3.5 3.5-2.3-1.3a7.5 7.5 0 0 1-2.3 1l-.8 2.5h-5l-.8-2.5a7.5 7.5 0 0 1-2.3-1l-2.3 1.3-3.5-3.5 1.3-2.3a7.5 7.5 0 0 1-1-2.3l-2.5-.8v-5l2.5-.8a7.5 7.5 0 0 1 1-2.3l-1.3-2.3 3.5-3.5 2.3 1.3a7.5 7.5 0 0 1 2.3-1z" fill="url(#fav-grad)"/>
    <circle cx="0" cy="0" r="3.2" fill="#12121e"/>
  </g>
</svg>
